<?xml version="1.0" standalone="no"?>
<!DOCTYPE svg PUBLIC "-//W3C//DTD SVG 20010904//EN"
 "http://www.w3.org/TR/2001/REC-SVG-20010904/DTD/svg10.dtd">
<svg version="1.0" xmlns="http://www.w3.org/2000/svg"
  id="svg-utsav-logo"
 width="814.000000pt" height="961.000000pt" viewBox="0 0 814.000000 961.000000"
 preserveAspectRatio="xMidYMid meet">

<g transform="translate(0.000000,961.000000) scale(0.100000,-0.100000)"
fill="#ffd700" stroke="none">
<path d="M21 9578 c49 -93 164 -285 177 -295 9 -7 32 -13 52 -13 32 0 36 -3
36 -22 -1 -20 3 -23 33 -20 32 3 33 2 27 -23 -9 -36 1 -65 24 -65 18 0 18 -2
4 -35 -37 -89 7 -193 101 -236 51 -24 99 -24 151 0 l40 18 36 -76 c49 -104 96
-154 268 -281 168 -125 216 -173 260 -259 32 -64 94 -132 142 -157 15 -8 28
-17 28 -21 0 -3 -30 -37 -66 -76 -95 -100 -222 -262 -323 -412 -365 -539 -575
-1152 -622 -1815 l-12 -170 -44 0 -43 0 0 -75 0 -75 44 0 43 0 7 -112 c50
-822 347 -1575 861 -2183 51 -60 109 -126 129 -144 20 -19 36 -40 36 -46 0 -6
-16 -19 -35 -28 -40 -19 -79 -74 -95 -134 -11 -45 -41 -73 -76 -73 -33 0 -73
-37 -80 -76 -6 -30 -9 -34 -28 -27 -35 13 -144 9 -158 -5 -11 -11 -8 -11 17
-2 60 23 139 -10 170 -70 21 -41 19 -109 -5 -148 -21 -34 -87 -72 -125 -72
-38 0 -104 39 -125 72 -16 26 -20 45 -17 86 3 38 1 49 -6 37 -11 -20 -13 -101
-3 -131 6 -19 3 -21 -18 -17 -21 4 -26 0 -32 -21 -3 -15 -4 -35 -1 -46 4 -17
0 -20 -30 -20 -33 0 -35 -2 -29 -26 7 -26 6 -27 -26 -22 -18 3 -41 3 -51 -1
-17 -6 -201 -310 -193 -318 6 -6 301 168 314 185 7 9 12 33 10 52 -3 32 -1 35
22 35 21 0 25 4 22 28 -3 26 -1 27 38 27 34 0 43 4 47 21 4 14 11 18 22 14 68
-28 149 -15 201 31 69 62 85 146 46 226 -20 39 -20 38 3 38 34 0 78 46 85 88
7 48 18 58 87 78 52 16 108 61 135 108 9 18 17 13 90 -53 608 -556 1385 -889
2219 -951 77 -5 150 -10 163 -10 19 0 22 -5 22 -35 l0 -35 75 0 75 0 0 34 0
34 103 6 c360 24 676 83 987 186 478 159 953 436 1307 764 39 36 75 66 79 65
5 0 27 -28 49 -62 34 -52 54 -70 120 -109 113 -65 155 -106 259 -247 50 -68
109 -145 131 -169 46 -52 136 -113 203 -138 26 -10 48 -18 49 -19 2 -1 -6 -19
-17 -40 -72 -142 78 -312 223 -252 35 15 37 15 37 -3 0 -23 29 -33 65 -24 25
6 26 5 23 -27 -3 -30 0 -34 20 -33 19 0 22 -4 22 -36 0 -20 6 -43 13 -52 10
-13 202 -128 295 -177 23 -12 23 -12 11 11 -44 85 -164 285 -177 296 -9 6 -32
12 -52 12 -32 0 -36 3 -36 23 1 19 -3 22 -32 19 -30 -3 -32 -2 -26 22 9 37 -4
66 -30 66 -21 0 -22 4 -19 68 2 64 2 65 -7 20 -4 -26 -15 -57 -24 -69 -61 -88
-199 -76 -249 21 -46 89 24 198 128 201 40 1 40 1 10 10 -19 6 -46 6 -74 -1
-24 -6 -45 -9 -48 -7 -2 2 -21 41 -43 85 -51 107 -95 152 -271 283 -160 119
-206 163 -243 236 -40 79 -81 127 -140 167 -31 20 -56 40 -56 43 0 3 30 37 66
76 133 144 290 351 401 531 327 528 507 1108 549 1759 l6 107 44 0 44 0 0 75
0 75 -44 0 -43 0 -7 113 c-42 688 -254 1322 -627 1872 -101 150 -224 306 -328
418 l-72 78 33 22 c41 28 75 78 89 131 15 55 25 65 71 72 45 8 88 52 88 91 0
20 4 24 18 18 30 -13 116 -17 142 -6 21 8 17 9 -20 5 -117 -13 -198 111 -141
216 52 99 205 99 256 0 8 -16 15 -48 16 -72 1 -42 1 -42 10 -13 9 27 5 77 -7
109 -3 7 5 12 23 11 26 0 28 3 31 43 3 40 5 43 30 40 24 -3 27 0 27 24 -1 26
1 27 35 22 21 -3 42 0 52 8 18 13 191 308 185 314 -2 2 -74 -37 -160 -87
l-157 -91 0 -47 c0 -47 -1 -48 -26 -43 -25 5 -26 3 -22 -27 4 -29 3 -31 -28
-31 -43 0 -64 -9 -64 -27 0 -11 -5 -13 -17 -8 -10 4 -39 10 -64 12 -150 16
-260 -162 -174 -283 14 -21 13 -22 -20 -28 -38 -7 -75 -47 -75 -80 0 -37 -28
-64 -84 -80 -53 -16 -108 -57 -132 -100 -9 -18 -17 -13 -90 54 -241 224 -593
462 -894 603 -445 208 -895 322 -1397 353 l-113 7 0 38 0 39 -75 0 -75 0 0
-39 0 -38 -112 -7 c-800 -49 -1504 -317 -2118 -807 -54 -43 -131 -108 -170
-146 -60 -56 -73 -65 -81 -51 -35 63 -92 117 -170 160 -97 53 -141 97 -249
247 -130 181 -200 245 -324 295 -45 19 -52 24 -45 41 4 11 7 45 7 75 -1 30 -3
42 -5 25 -11 -92 -66 -145 -147 -145 -92 0 -146 54 -146 147 0 77 47 128 135
144 32 6 27 7 -27 5 -65 -2 -68 -1 -68 21 0 26 -34 39 -70 28 -19 -6 -21 -4
-18 27 3 29 0 33 -19 32 -20 0 -23 4 -23 36 0 20 -6 43 -12 52 -11 13 -211
133 -296 177 -23 12 -23 12 -11 -11z m4289 -458 c807 -57 1566 -380 2158 -917
82 -74 82 -75 82 -124 l0 -49 48 0 c44 0 51 -4 94 -47 125 -131 313 -377 423
-556 634 -1036 706 -2308 192 -3408 -137 -294 -346 -609 -571 -861 l-87 -98
-49 0 -50 0 0 -50 0 -49 -97 -87 c-559 -498 -1246 -804 -1998 -890 -203 -23
-577 -23 -780 0 -749 85 -1432 389 -1992 885 l-93 82 0 55 0 54 -54 0 -55 0
-79 88 c-806 899 -1105 2126 -805 3297 142 555 423 1076 810 1503 l75 82 54 0
54 0 0 54 0 54 83 74 c715 645 1675 975 2637 908z"/>
<path d="M4793 8818 c-1 -29 -17 -111 -35 -183 -26 -104 -37 -132 -54 -140
-19 -9 -10 -13 59 -29 44 -10 87 -20 96 -24 14 -5 13 -3 -1 14 -17 19 -16 28
22 188 25 107 46 173 56 180 14 10 7 14 -42 25 -33 7 -68 15 -79 17 -18 4 -20
-1 -22 -48z"/>
<path d="M3171 8817 c-56 -16 -69 -22 -54 -28 16 -6 30 -42 68 -178 42 -148
46 -173 34 -188 -12 -14 -12 -16 1 -11 8 3 47 13 86 24 67 17 70 19 53 33 -25
22 -110 329 -97 354 11 21 6 21 -91 -6z"/>
<path d="M5055 8789 c3 -15 -15 -85 -47 -184 -46 -138 -56 -160 -76 -165 -18
-4 0 -13 73 -37 82 -27 95 -29 80 -13 -16 17 -14 27 35 182 28 90 59 169 68
175 19 16 20 15 -53 37 -33 10 -66 21 -73 24 -9 3 -11 -2 -7 -19z"/>
<path d="M3847 8349 c-547 -42 -1075 -249 -1527 -599 -111 -86 -348 -320 -440
-435 -103 -127 -242 -343 -318 -492 -208 -412 -306 -819 -306 -1278 0 -453 94
-853 295 -1255 139 -277 307 -509 528 -731 1099 -1099 2873 -1099 3972 0 445
445 721 1009 805 1646 23 172 23 503 0 676 -68 532 -272 1015 -602 1429 -94
117 -330 351 -444 440 -573 443 -1259 653 -1963 599z m498 -160 c487 -46 1000
-259 1395 -577 465 -376 799 -921 925 -1507 44 -209 50 -276 49 -575 0 -263
-2 -296 -27 -430 -68 -375 -196 -703 -395 -1005 -81 -125 -214 -295 -275 -354
l-35 -33 -15 29 c-19 35 -106 118 -134 127 -21 7 -20 8 10 69 59 117 46 286
-28 383 l-26 35 46 72 c113 176 230 458 274 661 l18 81 59 16 c123 32 209 100
261 207 25 51 28 68 28 157 0 82 -4 109 -22 148 -51 110 -132 178 -252 213
l-75 21 -17 81 c-43 200 -158 478 -268 650 l-52 80 30 44 c47 70 64 136 59
232 -3 64 -10 96 -32 139 -36 74 -127 159 -203 187 -111 42 -251 25 -342 -40
l-40 -30 -79 49 c-212 132 -440 223 -714 285 -22 5 -28 14 -37 56 -26 119
-103 219 -209 268 -80 38 -203 43 -285 12 -117 -44 -201 -137 -233 -258 -9
-37 -18 -68 -19 -70 -1 -1 -47 -13 -101 -27 -216 -52 -448 -149 -632 -263
l-83 -52 -40 30 c-114 82 -291 84 -412 4 -34 -23 -38 -23 -43 -7 -18 57 -30
76 -68 111 -23 21 -51 44 -62 50 -18 11 -17 14 21 47 209 184 389 307 615 419
465 231 933 316 1465 265z m-133 -315 c189 -96 232 -356 84 -507 -40 -40 -111
-80 -163 -92 l-33 -7 0 322 0 322 33 -7 c17 -4 53 -18 79 -31z m-480 -451 c31
-68 93 -129 166 -165 62 -31 74 -33 167 -33 88 0 107 3 157 27 32 15 79 48
106 75 42 42 59 71 98 160 l9 22 133 -34 c161 -42 341 -115 482 -196 154 -88
144 -77 118 -135 -19 -41 -23 -66 -23 -154 0 -95 3 -110 28 -160 66 -128 180
-202 323 -208 70 -3 90 0 148 23 80 32 65 42 154 -115 97 -170 174 -369 215
-552 l15 -66 -61 -22 c-72 -27 -161 -109 -194 -181 -81 -173 -23 -377 135
-477 26 -17 60 -34 75 -38 16 -3 31 -13 34 -20 8 -21 -25 -156 -69 -282 -65
-190 -219 -478 -248 -466 -154 64 -296 58 -399 -16 -37 -27 -42 -29 -47 -13
-36 106 -131 214 -232 265 -37 18 -69 34 -72 36 -2 1 121 127 273 280 320 320
326 331 198 345 -55 7 -94 -6 -120 -37 -16 -19 -47 -21 -54 -3 -8 22 -139 180
-217 261 -41 43 -163 156 -270 250 -252 220 -413 378 -508 496 -153 191 -285
323 -430 428 -59 42 -65 66 -27 102 22 20 25 32 25 87 0 70 -23 108 -57 96
-10 -3 -142 -129 -293 -280 l-276 -274 -23 57 c-31 74 -123 171 -200 213 l-59
31 36 71 c55 108 57 225 5 337 -19 40 -24 34 127 121 141 81 321 154 482 196
l133 34 9 -22 c5 -12 18 -41 28 -64z m-1582 -52 c0 -14 76 -95 101 -108 13 -7
36 -17 52 -23 l27 -10 -24 -37 c-79 -120 -78 -299 4 -411 l30 -42 -52 -83
c-113 -180 -223 -448 -266 -646 l-18 -84 -76 -21 c-127 -37 -214 -115 -258
-233 -18 -48 -21 -73 -18 -143 5 -106 36 -179 105 -248 54 -53 100 -78 187
-101 l59 -16 18 -82 c43 -201 158 -479 268 -651 l52 -81 -30 -41 c-66 -92 -83
-232 -41 -343 29 -77 113 -167 188 -203 113 -54 265 -43 370 28 l44 29 71 -46
c178 -114 391 -205 611 -260 l129 -33 21 -73 c35 -120 103 -201 213 -252 39
-18 66 -22 148 -22 89 0 106 3 157 28 106 52 174 137 207 260 l16 59 130 33
c221 56 433 146 613 260 l71 46 35 -26 c97 -74 266 -87 382 -28 l62 30 11 -23
c16 -36 86 -108 124 -129 l34 -18 -57 -52 c-233 -214 -580 -423 -885 -533
-138 -50 -353 -104 -510 -128 -171 -27 -609 -27 -780 0 -939 145 -1718 760
-2079 1642 -121 296 -175 564 -183 916 -11 471 66 836 261 1235 113 231 223
397 389 589 68 79 87 96 87 75z m3490 -87 c115 -53 180 -148 188 -274 3 -60 0
-87 -17 -131 -37 -97 -119 -173 -216 -198 -40 -10 -40 -10 -15 7 60 41 102 89
132 150 30 60 33 75 33 152 -1 65 -6 96 -23 133 -30 67 -74 120 -129 156 -58
39 -31 42 47 5z m-2888 -18 c60 -29 115 -83 145 -144 36 -74 39 -182 6 -253
-47 -104 -164 -188 -240 -174 -102 18 -199 109 -229 213 -41 140 26 294 157
361 50 25 103 24 161 -3z m1018 -363 c0 -37 -18 -56 -512 -550 -495 -495 -514
-513 -550 -513 -21 0 -38 3 -38 7 0 10 1083 1093 1092 1093 5 0 8 -17 8 -37z
m25 -220 c81 -114 242 -278 378 -389 76 -61 163 -135 194 -165 67 -66 288
-309 404 -444 107 -124 267 -279 382 -369 48 -37 87 -73 87 -80 0 -6 -41 -52
-90 -101 -87 -87 -90 -89 -83 -55 15 65 7 182 -16 240 -29 76 -105 168 -171
208 -119 71 -286 103 -553 106 -158 2 -201 6 -208 17 -5 8 -9 59 -9 114 0 257
-60 527 -139 632 -84 110 -213 170 -344 160 -40 -3 -81 -9 -92 -13 -11 -3 25
39 80 95 63 64 107 101 120 101 13 -1 35 -21 60 -57z m-911 -29 c29 -71 126
-168 207 -207 l68 -33 -275 -275 c-224 -224 -274 -279 -274 -301 0 -36 25 -48
98 -48 50 0 62 4 82 25 36 39 60 31 105 -32 81 -114 242 -278 378 -389 76 -61
163 -135 194 -165 67 -66 288 -309 404 -444 107 -124 267 -279 382 -369 48
-37 87 -72 87 -78 0 -6 -11 -23 -25 -40 -21 -25 -25 -40 -25 -97 0 -71 10 -91
44 -91 14 0 116 95 298 277 153 152 279 275 280 273 2 -3 18 -35 36 -72 51
-101 159 -196 265 -232 17 -5 16 -9 -8 -40 -14 -19 -35 -60 -46 -92 -27 -76
-23 -205 9 -277 l22 -48 -68 -43 c-151 -97 -370 -192 -557 -241 -115 -30 -134
-31 -142 -7 -46 138 -157 235 -298 261 -70 13 -153 1 -224 -32 -69 -32 -154
-121 -178 -187 -12 -32 -28 -56 -37 -58 -51 -11 -346 88 -511 171 -86 43 -235
131 -235 139 0 2 11 30 25 63 73 177 -8 382 -185 471 -44 22 -73 29 -140 32
-81 4 -129 -6 -210 -42 -29 -12 -183 275 -248 466 -43 123 -77 261 -69 281 2
6 22 18 43 26 95 34 176 117 214 219 33 88 26 205 -18 294 -40 82 -113 150
-193 179 l-57 21 14 61 c49 215 132 422 243 606 28 47 53 87 56 89 2 3 19 -2
37 -11 70 -32 111 -39 190 -35 65 4 89 11 146 40 37 20 69 36 72 37 3 0 14
-20 24 -45z m939 -148 c184 -90 250 -275 246 -687 -2 -200 3 -219 63 -237 18
-6 105 -13 193 -16 315 -10 509 -67 594 -175 61 -78 76 -119 76 -216 0 -144
-10 -162 -203 -357 -197 -200 -219 -213 -357 -213 -77 0 -98 4 -146 26 -184
87 -254 261 -265 664 -3 99 -10 190 -16 202 -16 33 -55 41 -243 47 -412 14
-605 109 -661 327 -14 54 -15 76 -5 137 6 40 19 88 28 106 24 47 321 364 358
384 62 32 110 42 196 39 69 -2 96 -8 142 -31z m-791 -538 c-3 -77 0 -103 18
-150 86 -228 263 -307 709 -313 117 -2 218 -8 222 -12 5 -5 11 -85 14 -179 12
-374 58 -548 173 -656 90 -84 205 -126 314 -114 32 4 67 10 76 13 9 3 -26 -38
-78 -91 -90 -91 -122 -111 -133 -83 -8 22 -139 180 -217 261 -41 43 -163 156
-270 250 -252 220 -413 378 -508 496 -153 191 -285 323 -430 428 -32 23 -52
45 -52 57 0 11 34 54 82 102 46 46 83 83 83 83 1 0 -1 -42 -3 -92z m-876 -132
c64 -30 123 -87 155 -152 34 -70 34 -207 0 -276 -97 -199 -360 -245 -515 -91
-21 21 -50 61 -64 88 -23 43 -27 62 -27 140 0 75 4 98 24 139 78 159 266 226
427 152z m2739 -1116 l-550 -550 -3 37 c-3 36 2 42 510 550 506 506 513 513
553 513 l40 0 -550 -550z m578 -322 c-58 -27 -117 -87 -150 -150 -24 -47 -28
-64 -28 -143 0 -71 5 -100 21 -136 31 -67 87 -124 157 -160 l62 -31 -61 5
c-103 8 -195 70 -250 169 -26 48 -29 62 -29 148 0 79 4 102 23 137 57 108 165
182 262 182 l35 0 -42 -21z m-2826 -24 c58 -28 111 -82 145 -146 33 -64 32
-194 -1 -262 -46 -93 -142 -165 -221 -166 -87 0 -211 100 -244 197 -49 143 9
299 138 373 65 38 115 39 183 4z m1561 -585 c62 -31 119 -90 150 -157 34 -75
36 -184 5 -254 -42 -93 -143 -176 -236 -193 l-37 -7 0 322 0 323 36 -6 c20 -3
56 -16 82 -28z"/>
<path d="M3884 5880 c-47 -16 -127 -33 -185 -39 -57 -6 -129 -16 -159 -21 -30
-5 -86 -14 -124 -19 -83 -12 -112 -34 -102 -77 11 -44 67 -88 142 -114 61 -20
95 -24 289 -29 263 -8 268 -10 309 -102 39 -86 44 -129 17 -172 -25 -41 -27
-95 -6 -224 29 -178 79 -276 178 -349 118 -88 244 -98 380 -31 131 65 268 214
312 342 26 74 24 177 -5 243 -12 29 -31 57 -42 63 -12 7 -67 6 -166 -2 -81 -6
-221 -11 -312 -10 l-165 0 -20 27 c-162 215 -217 293 -222 313 -3 13 2 56 13
97 17 72 17 74 -1 95 -34 37 -47 38 -131 9z"/>
<path d="M1970 8189 c-41 -34 -76 -62 -77 -63 -1 -1 10 -2 24 -1 22 0 45 -23
134 -130 60 -71 108 -137 109 -146 0 -8 -6 -21 -12 -29 -10 -10 124 93 152
118 3 3 -4 2 -16 -2 -26 -8 -35 0 -136 124 -115 142 -123 156 -108 175 22 26
7 16 -70 -46z"/>
<path d="M6248 8155 c3 -19 -18 -50 -109 -155 -99 -113 -117 -130 -139 -126
-20 3 -12 -8 40 -55 66 -59 84 -70 74 -45 -3 8 40 66 107 142 116 134 132 149
149 139 26 -16 4 7 -59 63 -57 51 -67 57 -63 37z"/>
<path d="M1770 8015 c-52 -52 -60 -65 -44 -65 21 0 230 -205 253 -248 9 -17 7
-24 -15 -41 -30 -24 -34 -24 -169 -8 l-100 12 -24 70 c-12 39 -24 90 -25 115
l-1 45 -29 -35 c-62 -73 -59 -68 -33 -63 21 4 25 -1 42 -56 10 -34 16 -63 14
-65 -2 -2 -30 0 -62 4 -57 6 -82 22 -70 45 4 6 3 7 -4 0 -14 -15 -106 -127
-123 -150 -14 -19 -14 -19 3 -6 13 11 36 12 100 7 155 -13 147 -8 174 -111 12
-50 23 -103 23 -118 0 -33 8 -30 49 21 28 36 29 38 9 38 -22 -1 -23 1 -52 118
l-7 28 68 -7 c70 -7 97 -19 87 -39 -3 -6 8 5 26 24 17 19 81 86 143 148 62 62
104 110 93 106 -27 -10 -268 241 -263 274 3 12 4 22 3 22 -1 0 -31 -29 -66
-65z"/>
<path d="M6450 7971 c0 -11 -53 -68 -130 -140 -119 -111 -132 -121 -153 -110
-12 6 12 -23 53 -65 41 -42 76 -76 78 -76 1 0 -2 9 -8 21 -10 19 1 33 112 145
108 110 126 125 151 121 26 -3 23 1 -35 60 -34 34 -64 63 -65 63 -2 0 -3 -8
-3 -19z"/>
<path d="M6625 7798 c4 -9 3 -23 -2 -31 -12 -22 -262 -227 -276 -227 -7 0 -19
6 -27 13 -7 6 15 -23 50 -65 63 -78 74 -89 64 -65 -7 18 7 32 144 146 99 84
127 102 147 99 25 -5 16 7 -97 137 -6 6 -7 3 -3 -7z"/>
<path d="M920 6703 c-13 -38 -25 -74 -28 -81 -4 -12 -1 -12 15 -1 18 11 43 5
184 -47 119 -43 165 -64 167 -77 6 -33 -49 -71 -156 -107 l-104 -35 -59 65
c-33 36 -65 76 -71 90 -10 23 -11 21 -24 -34 -8 -33 -12 -61 -9 -64 3 -3 5 0
5 6 0 24 27 11 70 -33 24 -24 42 -46 39 -48 -16 -15 -119 -45 -124 -37 -14 22
-23 6 -40 -72 -10 -46 -20 -90 -23 -98 -3 -10 0 -9 9 3 8 10 61 36 119 58
l105 40 53 -58 c30 -32 65 -75 80 -97 l26 -38 13 53 c7 30 12 56 13 58 0 2 -7
-3 -16 -10 -14 -11 -23 -5 -69 46 l-53 60 56 22 c70 27 99 29 104 6 2 -10 12
20 22 67 11 47 25 99 32 115 19 43 74 195 74 203 0 4 -5 -1 -11 -10 -5 -10
-15 -18 -22 -18 -26 0 -323 112 -333 125 -6 8 -13 15 -16 15 -2 0 -15 -30 -28
-67z"/>
<path d="M7245 6735 c-16 -23 -325 -126 -346 -115 -15 9 -14 0 9 -71 21 -62
29 -77 37 -65 5 8 83 41 173 72 140 49 167 56 184 45 16 -10 19 -10 15 1 -3 7
-16 43 -28 81 -13 37 -25 67 -29 67 -3 0 -10 -7 -15 -15z"/>
<path d="M7330 6533 c0 -24 -30 -52 -207 -193 -104 -82 -129 -107 -115 -112 9
-4 102 -24 207 -44 140 -28 194 -43 209 -58 14 -14 18 -15 13 -3 -3 8 -9 32
-13 52 -5 28 -9 33 -19 25 -10 -8 -43 -5 -121 10 -59 11 -109 22 -111 24 -9 8
174 126 190 122 21 -5 21 -6 -4 101 -22 91 -29 111 -29 76z"/>
<path d="M7390 4822 c0 -16 -50 -28 -230 -57 -91 -14 -177 -28 -192 -31 -25
-5 -15 -15 138 -146 131 -113 164 -146 165 -167 0 -24 2 -23 13 9 13 36 30
105 20 83 -3 -7 -12 -13 -20 -13 -15 0 -174 128 -174 140 0 9 209 32 221 24 5
-3 9 -13 10 -22 0 -9 14 27 30 82 16 54 27 101 24 104 -3 3 -5 0 -5 -6z"/>
<path d="M1215 4765 c-4 -11 -39 -62 -78 -113 -49 -64 -75 -91 -86 -88 -9 3
-49 14 -90 25 -41 11 -83 29 -94 38 -18 16 -20 16 -14 2 3 -10 11 -35 18 -58
11 -37 29 -56 29 -31 0 13 31 11 94 -3 l49 -12 -42 -52 c-39 -50 -71 -68 -71
-41 0 6 -2 9 -5 6 -3 -3 10 -47 29 -99 27 -73 36 -90 42 -74 4 11 36 59 72
106 l65 86 104 -32 c57 -18 110 -38 118 -45 12 -10 12 -4 -2 36 -19 60 -19 59
-36 46 -9 -8 -32 -5 -84 10 l-72 21 45 58 c42 55 74 75 74 47 0 -6 2 -9 5 -6
3 3 -10 47 -29 99 -26 73 -36 90 -41 74z"/>
<path d="M1798 3658 c7 -7 12 -23 12 -37 0 -23 -40 -221 -46 -230 -5 -6 -149
-31 -184 -31 -20 0 -43 6 -50 12 -8 7 10 -13 40 -45 30 -31 55 -57 55 -57 1 0
1 10 1 23 -1 19 7 24 57 36 32 7 60 11 64 8 3 -3 -1 -32 -9 -64 -12 -48 -18
-58 -35 -57 -17 0 -6 -17 55 -83 41 -46 77 -83 78 -83 2 0 -2 11 -8 25 -9 20
-6 47 12 132 13 60 24 109 25 110 1 2 49 10 108 18 84 13 111 14 129 4 15 -8
7 5 -22 37 -39 43 -46 46 -50 29 -5 -16 -20 -22 -78 -30 l-73 -11 7 40 c12 75
28 111 48 109 12 -1 -9 26 -60 78 -43 43 -81 79 -83 79 -3 0 0 -5 7 -12z"/>
<path d="M6342 3349 c56 -135 79 -200 76 -221 l-5 -29 39 38 c34 33 36 38 20
44 -11 4 -34 42 -56 93 -55 128 -53 119 -25 111 95 -30 181 -70 187 -86 6 -16
17 -8 74 54 60 67 64 73 39 69 -16 -2 -112 23 -222 57 -108 34 -198 61 -201
61 -3 0 31 -86 74 -191z"/>
<path d="M6041 3319 c-39 -34 -71 -63 -71 -64 0 -1 11 0 24 2 20 4 41 -15 135
-124 93 -106 111 -133 108 -155 -3 -25 2 -22 65 34 66 58 76 69 61 67 -24 -4
-42 12 -143 129 -85 97 -110 132 -107 150 2 12 3 22 1 22 -1 0 -34 -28 -73
-61z"/>
<path d="M2138 3314 c3 -18 -19 -52 -102 -153 -103 -125 -128 -147 -147 -135
-26 16 -1 -9 62 -61 40 -32 70 -52 67 -44 -8 21 6 43 111 169 107 130 109 132
134 126 9 -2 17 -3 17 -1 0 1 -33 29 -73 62 -63 51 -73 57 -69 37z"/>
<path d="M2798 2888 c19 -19 16 -33 -53 -187 -67 -148 -84 -173 -113 -165 -18
5 98 -52 134 -66 18 -7 21 -4 21 18 1 40 131 318 153 328 15 7 3 16 -68 47
-48 21 -81 32 -74 25z"/>
<path d="M5292 2643 c-2 -136 -7 -222 -14 -230 -6 -7 12 -4 42 9 46 19 50 23
31 30 -20 7 -21 14 -21 118 0 60 3 110 8 110 4 0 43 -36 86 -79 52 -53 76 -83
71 -92 -9 -14 -11 -15 93 32 69 31 72 33 49 43 -13 6 -93 70 -176 141 -84 72
-156 131 -159 132 -4 2 -8 -95 -10 -214z"/>
<path d="M3020 2784 c10 -16 2 -47 -47 -184 -51 -141 -62 -165 -82 -170 -19
-4 -4 -13 67 -37 78 -27 90 -29 80 -14 -9 15 -1 47 42 172 30 84 62 161 73
172 10 10 17 20 15 21 -1 1 -32 13 -68 26 -36 12 -71 25 -78 28 -11 4 -12 1
-2 -14z"/>
<path d="M5000 2742 c-63 -21 -79 -30 -63 -34 18 -5 30 -32 72 -164 28 -87 51
-166 51 -175 0 -10 -8 -23 -17 -29 -12 -8 -13 -10 -3 -7 168 49 173 50 154 64
-26 19 -125 332 -113 355 5 10 8 18 7 18 -2 -1 -41 -13 -88 -28z"/>
<path d="M3248 2704 c11 -19 -71 -330 -94 -355 -13 -15 -9 -18 49 -32 35 -9
72 -20 82 -23 15 -6 16 -4 7 13 -9 16 -3 53 28 169 49 183 54 194 82 195 20 0
-132 48 -155 49 -4 0 -4 -7 1 -16z"/>
<path d="M4780 2683 c-76 -18 -76 -18 -59 -36 8 -7 31 -89 53 -182 37 -163 38
-169 20 -183 -18 -14 -17 -14 6 -8 14 3 58 13 98 22 67 15 71 17 50 28 -19 10
-28 34 -62 175 -31 131 -36 168 -27 183 13 22 12 22 -79 1z"/>
<path d="M3520 2483 c-58 -91 -118 -175 -133 -189 l-28 -23 23 -5 c67 -14 78
-14 67 1 -9 10 -5 25 21 66 18 28 45 71 59 95 14 23 28 42 31 42 7 0 50 -186
50 -213 0 -9 -5 -17 -12 -17 -30 0 4 -10 67 -20 39 -6 84 -13 100 -16 l30 -7
-22 19 c-17 14 -39 72 -84 224 -34 113 -62 205 -63 206 0 1 -48 -73 -106 -163z"/>
<path d="M7726 2097 c3 -10 9 -15 12 -12 3 3 0 11 -7 18 -10 9 -11 8 -5 -6z"/>
</g>
</svg>
